# xmcd CD database file
#
# Track frame offsets:
#	150
#	25450
#	50250
#	71327
#	96885
#	126417
#	145912
#	176150
#	205185
#	228025
#
# Disc length: 3379 seconds
#
# Revision: 4
# Processed by: cddbd v1.5.2PL0 Copyright (c) Steve Scherf et al.
# Submitted via: CDex 1.51
#
DISCID=8a0d310a
DTITLE=中島 みゆき - 夜を往け
DYEAR=1990
DGENRE=Folk
TTITLE0=夜を往け
TTITLE1=ふたつの炎
TTITLE2=3分後に捨ててもいい
TTITLE3=あした
TTITLE4=新曾根崎心中
TTITLE5=君の昔を
TTITLE6=遠雷
TTITLE7=ふたりは
TTITLE8=北の国の習い
TTITLE9=with
EXTD=YEAR: 1990
EXTT0=
EXTT1=
EXTT2=
EXTT3=
EXTT4=
EXTT5=
EXTT6=
EXTT7=
EXTT8=
EXTT9=
PLAYORDER=
